<?xml version="1.0" encoding="UTF-8" standalone="no"?>
<!-- Created with Inkscape (http://www.inkscape.org/) -->

<svg
   width="80mm"
   height="80mm"
   viewBox="0 0 80 80"
   version="1.1"
   id="svg1"
   xml:space="preserve"
   inkscape:version="1.3.2 (091e20e, 2023-11-25)"
   sodipodi:docname="j1_logo.svg"
   inkscape:export-filename="j1_logo_32.png"
   inkscape:export-xdpi="10.16"
   inkscape:export-ydpi="10.16"
   xmlns:inkscape="http://www.inkscape.org/namespaces/inkscape"
   xmlns:sodipodi="http://sodipodi.sourceforge.net/DTD/sodipodi-0.dtd"
   xmlns="http://www.w3.org/2000/svg"
   xmlns:svg="http://www.w3.org/2000/svg"><sodipodi:namedview
     id="namedview1"
     pagecolor="#ffffff"
     bordercolor="#000000"
     borderopacity="0.25"
     inkscape:showpageshadow="2"
     inkscape:pageopacity="0.0"
     inkscape:pagecheckerboard="0"
     inkscape:deskcolor="#d1d1d1"
     inkscape:document-units="mm"
     inkscape:zoom="1.6819304"
     inkscape:cx="14.863873"
     inkscape:cy="83.237689"
     inkscape:window-width="1920"
     inkscape:window-height="1027"
     inkscape:window-x="1728"
     inkscape:window-y="743"
     inkscape:window-maximized="1"
     inkscape:current-layer="layer1" /><defs
     id="defs1" /><g
     inkscape:label="logo"
     inkscape:groupmode="layer"
     id="layer1"
     transform="translate(-70.060457,-109.34143)"><path
       style="display:inline;fill:#8ea89e;fill-opacity:1"
       d="m 92.244412,187.72948 c -1.085987,-0.17993 -2.832585,-0.84265 -3.938625,-1.49444 -0.762535,-0.44936 -2.057155,-1.54554 -3.527777,-2.98704 -2.232043,-2.18785 -2.282783,-2.25338 -1.293396,-1.67046 0.566382,0.33369 1.518882,0.79024 2.116667,1.01454 l 1.086881,0.40781 21.237038,0.0476 c 23.72544,0.0531 22.11024,0.13233 24.88866,-1.2202 2.09888,-1.02172 4.07845,-3.00979 5.08653,-5.10838 1.32852,-2.76567 1.26347,-1.28642 1.26347,-28.73218 0,-27.33842 0.0574,-25.98429 -1.21344,-28.62751 l -0.66128,-1.37543 1.91793,1.90459 c 2.98394,2.96318 4.11147,4.92909 4.53705,7.91057 0.14376,1.00715 0.18522,8.33687 0.14711,26.00861 l -0.0531,24.60625 -0.4141,1.23472 c -0.68839,2.05252 -1.42729,3.2534 -2.93652,4.7725 -1.62404,1.63467 -3.17736,2.53587 -5.31174,3.08175 -1.31822,0.33714 -1.99243,0.3471 -21.92522,0.32382 -11.31086,-0.0132 -20.763634,-0.0569 -21.006168,-0.0971 z"
       id="path1"
       sodipodi:nodetypes="cssssccsssscssscsssscc"
       inkscape:label="backdrop" /><path
       style="display:inline;fill:#2a324b;fill-opacity:1"
       d="m 85.598492,181.13293 c -4.568163,-0.77498 -8.2481,-4.30974 -9.294248,-8.92758 -0.25857,-1.14136 -0.2873,-3.76828 -0.284546,-26.01736 0.0026,-20.98353 0.04212,-24.93218 0.25986,-25.9599 0.694457,-3.27784 3.135301,-6.41595 6.096985,-7.8387 2.742193,-1.3173 1.799818,-1.26797 24.220617,-1.26797 22.39219,0 21.64582,-0.0377 24.18823,1.22183 2.85297,1.41339 4.82464,3.6884 5.88187,6.58127 l 0.46813,1.28093 0.047,25.56074 c 0.0525,28.5418 0.14142,26.41604 -1.22188,29.20801 -1.30394,2.6704 -3.85151,4.81791 -6.93901,5.84933 l -1.23472,0.41247 -20.6375,0.0259 c -11.350632,0.0143 -21.048483,-0.0438 -21.550788,-0.12901 z m 19.064908,-9.31266 c 1.18968,-0.47945 2.35498,-1.54676 2.9416,-2.69421 0.88973,-1.74037 0.86286,-0.93715 0.8651,-25.8609 l 0.002,-23.33057 -4.27743,0.0472 -4.277437,0.0472 -0.0448,22.00858 -0.0448,22.00858 -3.130211,-0.0482 -3.130216,-0.0482 -0.04644,-5.95312 c -0.02554,-3.27422 -0.09183,-5.95313 -0.147297,-5.95313 -0.05547,0 -1.999101,0.96083 -4.319181,2.13518 l -4.218328,2.13518 0.0062,4.87628 c 0.0063,4.94649 0.130762,6.22213 0.742611,7.61031 0.644127,1.46141 1.786864,2.51655 3.365848,3.10783 1.075903,0.4029 1.169357,0.40728 7.879789,0.36974 6.700122,-0.0375 6.804912,-0.0436 7.832872,-0.45789 z m 23.87361,-25.64156 -0.0447,-26.14965 -3.0868,-0.0378 -3.08681,-0.0378 -4.40972,2.24262 -4.40972,2.24262 -0.047,4.63021 c -0.0337,3.31965 0.009,4.63021 0.14993,4.63021 0.10833,0 1.4885,-0.67469 3.06706,-1.49931 1.57855,-0.82462 2.95968,-1.4993 3.06916,-1.4993 0.14671,0 0.19907,5.47469 0.19907,20.81389 v 20.81389 h 4.32211 4.32211 z"
       id="path2"
       sodipodi:nodetypes="cssssssscssscccccsccccccccssscssssccccccccssssscccc"
       inkscape:label="face" /><path
       style="display:inline;fill:#eeeeee;fill-opacity:1"
       d="m 104.6634,171.82027 c 1.18968,-0.47945 2.35498,-1.54676 2.9416,-2.69421 0.88973,-1.74037 0.86286,-0.93715 0.8651,-25.8609 l 0.002,-23.33057 -4.27743,0.0472 -4.277437,0.0472 -0.0448,22.00858 -0.0448,22.00858 -3.130211,-0.0482 -3.130216,-0.0482 -0.04644,-5.95312 c -0.02554,-3.27422 -0.09183,-5.95313 -0.147297,-5.95313 -0.05547,0 -1.999101,0.96083 -4.319181,2.13518 l -4.218328,2.13518 0.0062,4.87628 c 0.0063,4.94649 0.130762,6.22213 0.742611,7.61031 0.644127,1.46141 1.786864,2.51655 3.365848,3.10783 1.075903,0.4029 1.169357,0.40728 7.879789,0.36974 6.700122,-0.0375 6.804912,-0.0436 7.832872,-0.45789 z m 23.87361,-25.64156 -0.0447,-26.14965 -3.0868,-0.0378 -3.08681,-0.0378 -4.40972,2.24262 -4.40972,2.24262 -0.047,4.63021 c -0.0337,3.31965 0.009,4.63021 0.14993,4.63021 0.10833,0 1.4885,-0.67469 3.06706,-1.49931 1.57855,-0.82462 2.95968,-1.4993 3.06916,-1.4993 0.14671,0 0.19907,5.47469 0.19907,20.81389 v 20.81389 h 4.32211 4.32211 z"
       id="path3"
       sodipodi:nodetypes="csccccccccssscssssccccccccssssscccc"
       inkscape:label="letters" /></g></svg>
